<?xml version="1.0" encoding="utf-8"?>
<!-- Generator: Adobe Illustrator 26.0.0, SVG Export Plug-In . SVG Version: 6.00 Build 0)  -->
<svg version="1.1" id="Layer_1" xmlns="http://www.w3.org/2000/svg" xmlns:xlink="http://www.w3.org/1999/xlink" x="0px" y="0px"
	 viewBox="0 0 16 16" style="enable-background:new 0 0 16 16;" xml:space="preserve">
<style type="text/css">
	.st0{fill:#FFFFFF;}
	.st1{fill-rule:evenodd;clip-rule:evenodd;}
</style>
<circle class="st0" cx="8" cy="8" r="8"/>
<path class="st1" d="M8.3,10.9C15.5,6,10.1,2.2,8,4.4C5.9,2.2,0.5,6,7.7,10.9l-0.2,0.3c0,0.1,0,0.2,0.1,0.2s0.2,0,0.2-0.1v-0.1
	c0,0.1,0,0.2,0,0.3c0,0.2,0.1,0.4,0.3,0.7l0,0c0.1,0.3,0.1,0.6,0,0.8c-0.1,0.3-0.2,0.5-0.3,0.7c-0.1,0.1,0,0.2,0,0.2
	c0.1,0.1,0.2,0,0.2,0l0,0c0.1-0.2,0.3-0.4,0.4-0.7c0.1-0.3,0.1-0.7,0-1.1c-0.2-0.3-0.2-0.5-0.3-0.7c0-0.1,0-0.1,0-0.2l0,0
	c0,0.1,0.1,0.1,0.2,0.1c0.1,0,0.1-0.1,0.1-0.2L8.3,10.9L8.3,10.9z"/>
</svg>
